<?xml version="1.0" standalone="no"?><!-- Generator: Gravit.io --><svg xmlns="http://www.w3.org/2000/svg" xmlns:xlink="http://www.w3.org/1999/xlink" style="isolation:isolate" viewBox="0 0 248 72" width="248" height="72"><defs><clipPath id="_clipPath_c8gDgGDFk9hrP0CM2KVtrVIJPSEaaFRp"><rect width="248" height="72"/></clipPath></defs><g clip-path="url(#_clipPath_c8gDgGDFk9hrP0CM2KVtrVIJPSEaaFRp)"><g><ellipse vector-effect="non-scaling-stroke" cx="37.91304347826087" cy="18.765" rx="1.9130434782608674" ry="1.9149999999999991" fill="rgb(188,224,108)"/><ellipse vector-effect="non-scaling-stroke" cx="37.91304347826087" cy="26.424999999999997" rx="1.9130434782608674" ry="1.9149999999999991" fill="rgb(188,224,108)"/><ellipse vector-effect="non-scaling-stroke" cx="37.91304347826087" cy="30.255000000000003" rx="1.9130434782608674" ry="1.9149999999999991" fill="rgb(188,224,108)"/><ellipse vector-effect="non-scaling-stroke" cx="37.91304347826087" cy="34.08500000000001" rx="1.9130434782608674" ry="1.9149999999999991" fill="rgb(188,224,108)"/><ellipse vector-effect="non-scaling-stroke" cx="37.91304347826087" cy="37.915000000000006" rx="1.9130434782608674" ry="1.9149999999999991" fill="rgb(188,224,108)"/><ellipse vector-effect="non-scaling-stroke" cx="37.91304347826087" cy="41.745000000000005" rx="1.9130434782608674" ry="1.9149999999999991" fill="rgb(188,224,108)"/><ellipse vector-effect="non-scaling-stroke" cx="37.91304347826087" cy="45.575" rx="1.9130434782608674" ry="1.9149999999999991" fill="rgb(188,224,108)"/><ellipse vector-effect="non-scaling-stroke" cx="37.91304347826087" cy="49.405" rx="1.9130434782608674" ry="1.9149999999999991" fill="rgb(188,224,108)"/><ellipse vector-effect="non-scaling-stroke" cx="37.91304347826087" cy="53.235" rx="1.9130434782608674" ry="1.9149999999999991" fill="rgb(188,224,108)"/><ellipse vector-effect="non-scaling-stroke" cx="37.91304347826087" cy="22.595000000000006" rx="1.9130434782608674" ry="1.9149999999999991" fill="rgb(188,224,108)"/><ellipse vector-effect="non-scaling-stroke" cx="41.73913043478261" cy="18.765" rx="1.9130434782608674" ry="1.9149999999999991" fill="rgb(188,224,108)"/><ellipse vector-effect="non-scaling-stroke" cx="41.73913043478261" cy="26.424999999999997" rx="1.9130434782608674" ry="1.9149999999999991" fill="rgb(188,224,108)"/><ellipse vector-effect="non-scaling-stroke" cx="41.73913043478261" cy="30.255000000000003" rx="1.9130434782608674" ry="1.9149999999999991" fill="rgb(188,224,108)"/><ellipse vector-effect="non-scaling-stroke" cx="41.73913043478261" cy="34.08500000000001" rx="1.9130434782608674" ry="1.9149999999999991" fill="rgb(188,224,108)"/><ellipse vector-effect="non-scaling-stroke" cx="45.56521739130436" cy="34.08500000000001" rx="1.9130434782608674" ry="1.9149999999999991" fill="rgb(188,224,108)"/><ellipse vector-effect="non-scaling-stroke" cx="41.73913043478261" cy="37.915000000000006" rx="1.9130434782608674" ry="1.9149999999999991" fill="rgb(188,224,108)"/><ellipse vector-effect="non-scaling-stroke" cx="45.56521739130436" cy="37.915000000000006" rx="1.9130434782608674" ry="1.9149999999999991" fill="rgb(188,224,108)"/><ellipse vector-effect="non-scaling-stroke" cx="49.39130434782608" cy="37.915000000000006" rx="1.9130434782608674" ry="1.9149999999999991" fill="rgb(188,224,108)"/><ellipse vector-effect="non-scaling-stroke" cx="49.39130434782608" cy="34.08500000000001" rx="1.9130434782608674" ry="1.9149999999999991" fill="rgb(188,224,108)"/><ellipse vector-effect="non-scaling-stroke" cx="49.39130434782608" cy="30.255000000000003" rx="1.9130434782608674" ry="1.9149999999999991" fill="rgb(188,224,108)"/><ellipse vector-effect="non-scaling-stroke" cx="53.21739130434783" cy="30.255000000000003" rx="1.9130434782608674" ry="1.9149999999999991" fill="rgb(188,224,108)"/><ellipse vector-effect="non-scaling-stroke" cx="49.39130434782608" cy="41.745000000000005" rx="1.9130434782608674" ry="1.9149999999999991" fill="rgb(188,224,108)"/><ellipse vector-effect="non-scaling-stroke" cx="53.21739130434783" cy="41.745000000000005" rx="1.9130434782608674" ry="1.9149999999999991" fill="rgb(188,224,108)"/><ellipse vector-effect="non-scaling-stroke" cx="53.21739130434783" cy="45.575" rx="1.9130434782608674" ry="1.9149999999999991" fill="rgb(188,224,108)"/><ellipse vector-effect="non-scaling-stroke" cx="57.04347826086956" cy="45.575" rx="1.9130434782608674" ry="1.9149999999999991" fill="rgb(188,224,108)"/><ellipse vector-effect="non-scaling-stroke" cx="57.04347826086956" cy="49.405" rx="1.9130434782608674" ry="1.9149999999999991" fill="rgb(188,224,108)"/><ellipse vector-effect="non-scaling-stroke" cx="60.8695652173913" cy="53.235" rx="1.9130434782608674" ry="1.9149999999999991" fill="rgb(188,224,108)"/><ellipse vector-effect="non-scaling-stroke" cx="57.04347826086956" cy="53.235" rx="1.9130434782608674" ry="1.9149999999999991" fill="rgb(188,224,108)"/><ellipse vector-effect="non-scaling-stroke" cx="53.21739130434783" cy="26.424999999999997" rx="1.9130434782608674" ry="1.9149999999999991" fill="rgb(188,224,108)"/><ellipse vector-effect="non-scaling-stroke" cx="57.04347826086956" cy="26.424999999999997" rx="1.9130434782608674" ry="1.9149999999999991" fill="rgb(188,224,108)"/><ellipse vector-effect="non-scaling-stroke" cx="57.04347826086956" cy="22.595000000000006" rx="1.9130434782608674" ry="1.9149999999999991" fill="rgb(188,224,108)"/><ellipse vector-effect="non-scaling-stroke" cx="60.8695652173913" cy="22.595000000000006" rx="1.9130434782608674" ry="1.9149999999999991" fill="rgb(188,224,108)"/><ellipse vector-effect="non-scaling-stroke" cx="60.8695652173913" cy="18.765" rx="1.9130434782608674" ry="1.9149999999999991" fill="rgb(188,224,108)"/><ellipse vector-effect="non-scaling-stroke" cx="57.04347826086956" cy="18.765" rx="1.9130434782608674" ry="1.9149999999999991" fill="rgb(188,224,108)"/><ellipse vector-effect="non-scaling-stroke" cx="41.73913043478261" cy="41.745000000000005" rx="1.9130434782608674" ry="1.9149999999999991" fill="rgb(188,224,108)"/><ellipse vector-effect="non-scaling-stroke" cx="41.73913043478261" cy="45.575" rx="1.9130434782608674" ry="1.9149999999999991" fill="rgb(188,224,108)"/><ellipse vector-effect="non-scaling-stroke" cx="41.73913043478261" cy="49.405" rx="1.9130434782608674" ry="1.9149999999999991" fill="rgb(188,224,108)"/><ellipse vector-effect="non-scaling-stroke" cx="41.73913043478261" cy="53.235" rx="1.9130434782608674" ry="1.9149999999999991" fill="rgb(188,224,108)"/><ellipse vector-effect="non-scaling-stroke" cx="41.73913043478261" cy="22.595000000000006" rx="1.9130434782608674" ry="1.9149999999999991" fill="rgb(188,224,108)"/><ellipse vector-effect="non-scaling-stroke" cx="144.63043478260863" cy="18.765" rx="1.5" ry="1.9149999999999991" fill="rgb(188,224,108)"/><ellipse vector-effect="non-scaling-stroke" cx="145.04347826086956" cy="26.424999999999997" rx="1.9130434782608745" ry="1.9149999999999991" fill="rgb(188,224,108)"/><ellipse vector-effect="non-scaling-stroke" cx="145.04347826086956" cy="30.255000000000003" rx="1.9130434782608745" ry="1.9149999999999991" fill="rgb(188,224,108)"/><ellipse vector-effect="non-scaling-stroke" cx="145.04347826086956" cy="34.08500000000001" rx="1.9130434782608745" ry="1.9149999999999991" fill="rgb(188,224,108)"/><ellipse vector-effect="non-scaling-stroke" cx="145.04347826086956" cy="37.915000000000006" rx="1.9130434782608745" ry="1.9149999999999991" fill="rgb(188,224,108)"/><ellipse vector-effect="non-scaling-stroke" cx="145.04347826086956" cy="41.745000000000005" rx="1.9130434782608745" ry="1.9149999999999991" fill="rgb(188,224,108)"/><ellipse vector-effect="non-scaling-stroke" cx="145.04347826086956" cy="45.575" rx="1.9130434782608745" ry="1.9149999999999991" fill="rgb(188,224,108)"/><ellipse vector-effect="non-scaling-stroke" cx="145.04347826086956" cy="49.405" rx="1.9130434782608745" ry="1.9149999999999991" fill="rgb(188,224,108)"/><ellipse vector-effect="non-scaling-stroke" cx="145.04347826086956" cy="53.235" rx="1.9130434782608745" ry="1.9149999999999991" fill="rgb(188,224,108)"/><ellipse vector-effect="non-scaling-stroke" cx="145.04347826086956" cy="22.595000000000006" rx="1.9130434782608745" ry="1.9149999999999991" fill="rgb(188,224,108)"/><ellipse vector-effect="non-scaling-stroke" cx="148.8695652173913" cy="18.765" rx="1.9130434782608745" ry="1.9149999999999991" fill="rgb(188,224,108)"/><ellipse vector-effect="non-scaling-stroke" cx="148.8695652173913" cy="26.424999999999997" rx="1.9130434782608745" ry="1.9149999999999991" fill="rgb(188,224,108)"/><ellipse vector-effect="non-scaling-stroke" cx="148.8695652173913" cy="30.255000000000003" rx="1.9130434782608745" ry="1.9149999999999991" fill="rgb(188,224,108)"/><ellipse vector-effect="non-scaling-stroke" cx="148.8695652173913" cy="34.08500000000001" rx="1.9130434782608745" ry="1.9149999999999991" fill="rgb(188,224,108)"/><ellipse vector-effect="non-scaling-stroke" cx="148.8695652173913" cy="37.915000000000006" rx="1.9130434782608745" ry="1.9149999999999991" fill="rgb(188,224,108)"/><ellipse vector-effect="non-scaling-stroke" cx="148.8695652173913" cy="41.745000000000005" rx="1.9130434782608745" ry="1.9149999999999991" fill="rgb(188,224,108)"/><ellipse vector-effect="non-scaling-stroke" cx="148.8695652173913" cy="45.575" rx="1.9130434782608745" ry="1.9149999999999991" fill="rgb(188,224,108)"/><ellipse vector-effect="non-scaling-stroke" cx="148.8695652173913" cy="49.405" rx="1.9130434782608745" ry="1.9149999999999991" fill="rgb(188,224,108)"/><ellipse vector-effect="non-scaling-stroke" cx="148.8695652173913" cy="53.235" rx="1.9130434782608745" ry="1.9149999999999991" fill="rgb(188,224,108)"/><ellipse vector-effect="non-scaling-stroke" cx="148.8695652173913" cy="22.595000000000006" rx="1.9130434782608745" ry="1.9149999999999991" fill="rgb(188,224,108)"/><ellipse vector-effect="non-scaling-stroke" cx="99.13043478260869" cy="18.765" rx="1.9130434782608745" ry="1.9149999999999991" fill="rgb(188,224,108)"/><ellipse vector-effect="non-scaling-stroke" cx="99.13043478260869" cy="26.424999999999997" rx="1.9130434782608745" ry="1.9149999999999991" fill="rgb(188,224,108)"/><ellipse vector-effect="non-scaling-stroke" cx="99.13043478260869" cy="30.255000000000003" rx="1.9130434782608745" ry="1.9149999999999991" fill="rgb(188,224,108)"/><ellipse vector-effect="non-scaling-stroke" cx="99.13043478260869" cy="34.08500000000001" rx="1.9130434782608745" ry="1.9149999999999991" fill="rgb(188,224,108)"/><ellipse vector-effect="non-scaling-stroke" cx="99.13043478260869" cy="37.915000000000006" rx="1.9130434782608745" ry="1.9149999999999991" fill="rgb(188,224,108)"/><ellipse vector-effect="non-scaling-stroke" cx="99.13043478260869" cy="41.745000000000005" rx="1.9130434782608745" ry="1.9149999999999991" fill="rgb(188,224,108)"/><ellipse vector-effect="non-scaling-stroke" cx="99.13043478260869" cy="45.575" rx="1.9130434782608745" ry="1.9149999999999991" fill="rgb(188,224,108)"/><ellipse vector-effect="non-scaling-stroke" cx="99.13043478260869" cy="49.405" rx="1.9130434782608745" ry="1.9149999999999991" fill="rgb(188,224,108)"/><ellipse vector-effect="non-scaling-stroke" cx="99.13043478260869" cy="53.235" rx="1.9130434782608745" ry="1.9149999999999991" fill="rgb(188,224,108)"/><ellipse vector-effect="non-scaling-stroke" cx="99.13043478260869" cy="22.595000000000006" rx="1.9130434782608745" ry="1.9149999999999991" fill="rgb(188,224,108)"/><ellipse vector-effect="non-scaling-stroke" cx="102.95652173913042" cy="18.765" rx="1.9130434782608745" ry="1.9149999999999991" fill="rgb(188,224,108)"/><ellipse vector-effect="non-scaling-stroke" cx="102.95652173913042" cy="26.424999999999997" rx="1.9130434782608745" ry="1.9149999999999991" fill="rgb(188,224,108)"/><ellipse vector-effect="non-scaling-stroke" cx="102.95652173913042" cy="30.255000000000003" rx="1.9130434782608745" ry="1.9149999999999991" fill="rgb(188,224,108)"/><ellipse vector-effect="non-scaling-stroke" cx="102.95652173913042" cy="34.08500000000001" rx="1.9130434782608745" ry="1.9149999999999991" fill="rgb(188,224,108)"/><ellipse vector-effect="non-scaling-stroke" cx="102.95652173913042" cy="37.915000000000006" rx="1.9130434782608745" ry="1.9149999999999991" fill="rgb(188,224,108)"/><ellipse vector-effect="non-scaling-stroke" cx="102.95652173913042" cy="41.745000000000005" rx="1.9130434782608745" ry="1.9149999999999991" fill="rgb(188,224,108)"/><ellipse vector-effect="non-scaling-stroke" cx="102.95652173913042" cy="45.575" rx="1.9130434782608745" ry="1.9149999999999991" fill="rgb(188,224,108)"/><ellipse vector-effect="non-scaling-stroke" cx="102.95652173913042" cy="49.405" rx="1.9130434782608745" ry="1.9149999999999991" fill="rgb(188,224,108)"/><ellipse vector-effect="non-scaling-stroke" cx="102.95652173913042" cy="53.235" rx="1.9130434782608745" ry="1.9149999999999991" fill="rgb(188,224,108)"/><ellipse vector-effect="non-scaling-stroke" cx="106.78260869565217" cy="53.235" rx="1.9130434782608745" ry="1.9149999999999991" fill="rgb(188,224,108)"/><ellipse vector-effect="non-scaling-stroke" cx="110.6086956521739" cy="53.235" rx="1.9130434782608745" ry="1.9149999999999991" fill="rgb(188,224,108)"/><ellipse vector-effect="non-scaling-stroke" cx="106.78260869565217" cy="53.235" rx="1.9130434782608745" ry="1.9149999999999991" fill="rgb(188,224,108)"/><ellipse vector-effect="non-scaling-stroke" cx="110.6086956521739" cy="53.235" rx="1.9130434782608745" ry="1.9149999999999991" fill="rgb(188,224,108)"/><ellipse vector-effect="non-scaling-stroke" cx="114.43478260869564" cy="53.235" rx="1.9130434782608745" ry="1.9149999999999991" fill="rgb(188,224,108)"/><ellipse vector-effect="non-scaling-stroke" cx="118.26086956521739" cy="49.405" rx="1.9130434782608745" ry="1.9149999999999991" fill="rgb(188,224,108)"/><ellipse vector-effect="non-scaling-stroke" cx="102.95652173913042" cy="22.595000000000006" rx="1.9130434782608745" ry="1.9149999999999991" fill="rgb(188,224,108)"/><ellipse vector-effect="non-scaling-stroke" cx="106.78260869565217" cy="18.765" rx="1.9130434782608745" ry="1.9149999999999991" fill="rgb(188,224,108)"/><ellipse vector-effect="non-scaling-stroke" cx="106.78260869565217" cy="49.405" rx="1.9130434782608745" ry="1.9149999999999991" fill="rgb(188,224,108)"/><ellipse vector-effect="non-scaling-stroke" cx="106.78260869565217" cy="22.595000000000006" rx="1.9130434782608745" ry="1.9149999999999991" fill="rgb(188,224,108)"/><ellipse vector-effect="non-scaling-stroke" cx="110.6086956521739" cy="18.765" rx="1.9130434782608745" ry="1.9149999999999991" fill="rgb(188,224,108)"/><ellipse vector-effect="non-scaling-stroke" cx="110.6086956521739" cy="49.405" rx="1.9130434782608745" ry="1.9149999999999991" fill="rgb(188,224,108)"/><ellipse vector-effect="non-scaling-stroke" cx="110.6086956521739" cy="22.595000000000006" rx="1.9130434782608745" ry="1.9149999999999991" fill="rgb(188,224,108)"/><ellipse vector-effect="non-scaling-stroke" cx="114.43478260869564" cy="49.405" rx="1.9130434782608745" ry="1.9149999999999991" fill="rgb(188,224,108)"/><ellipse vector-effect="non-scaling-stroke" cx="114.43478260869564" cy="22.595000000000006" rx="1.9130434782608745" ry="1.9149999999999991" fill="rgb(188,224,108)"/><ellipse vector-effect="non-scaling-stroke" cx="114.43478260869564" cy="18.765" rx="1.9130434782608745" ry="1.9149999999999991" fill="rgb(188,224,108)"/><ellipse vector-effect="non-scaling-stroke" cx="118.26086956521739" cy="22.595000000000006" rx="1.9130434782608745" ry="1.9149999999999991" fill="rgb(188,224,108)"/><ellipse vector-effect="non-scaling-stroke" cx="118.26086956521739" cy="26.424999999999997" rx="1.9130434782608745" ry="1.9149999999999991" fill="rgb(188,224,108)"/><ellipse vector-effect="non-scaling-stroke" cx="118.26086956521739" cy="30.255000000000003" rx="1.9130434782608745" ry="1.9149999999999991" fill="rgb(188,224,108)"/><ellipse vector-effect="non-scaling-stroke" cx="118.26086956521739" cy="34.08500000000001" rx="1.9130434782608745" ry="1.9149999999999991" fill="rgb(188,224,108)"/><ellipse vector-effect="non-scaling-stroke" cx="118.26086956521739" cy="37.915000000000006" rx="1.9130434782608745" ry="1.9149999999999991" fill="rgb(188,224,108)"/><ellipse vector-effect="non-scaling-stroke" cx="118.26086956521739" cy="41.745000000000005" rx="1.9130434782608745" ry="1.9149999999999991" fill="rgb(188,224,108)"/><ellipse vector-effect="non-scaling-stroke" cx="118.26086956521739" cy="45.575" rx="1.9130434782608745" ry="1.9149999999999991" fill="rgb(188,224,108)"/><ellipse vector-effect="non-scaling-stroke" cx="118.26086956521739" cy="30.255000000000003" rx="1.9130434782608745" ry="1.9149999999999991" fill="rgb(188,224,108)"/><ellipse vector-effect="non-scaling-stroke" cx="118.26086956521739" cy="34.08500000000001" rx="1.9130434782608745" ry="1.9149999999999991" fill="rgb(188,224,108)"/><ellipse vector-effect="non-scaling-stroke" cx="118.26086956521739" cy="37.915000000000006" rx="1.9130434782608745" ry="1.9149999999999991" fill="rgb(188,224,108)"/><ellipse vector-effect="non-scaling-stroke" cx="118.26086956521739" cy="41.745000000000005" rx="1.9130434782608745" ry="1.9149999999999991" fill="rgb(188,224,108)"/><ellipse vector-effect="non-scaling-stroke" cx="122.08695652173914" cy="26.424999999999997" rx="1.9130434782608745" ry="1.9149999999999991" fill="rgb(188,224,108)"/><ellipse vector-effect="non-scaling-stroke" cx="122.08695652173914" cy="30.255000000000003" rx="1.9130434782608745" ry="1.9149999999999991" fill="rgb(188,224,108)"/><ellipse vector-effect="non-scaling-stroke" cx="122.08695652173914" cy="34.08500000000001" rx="1.9130434782608745" ry="1.9149999999999991" fill="rgb(188,224,108)"/><ellipse vector-effect="non-scaling-stroke" cx="122.08695652173914" cy="37.915000000000006" rx="1.9130434782608745" ry="1.9149999999999991" fill="rgb(188,224,108)"/><ellipse vector-effect="non-scaling-stroke" cx="122.08695652173914" cy="41.745000000000005" rx="1.9130434782608745" ry="1.9149999999999991" fill="rgb(188,224,108)"/><ellipse vector-effect="non-scaling-stroke" cx="122.08695652173914" cy="45.575" rx="1.9130434782608745" ry="1.9149999999999991" fill="rgb(188,224,108)"/><ellipse vector-effect="non-scaling-stroke" cx="122.08695652173914" cy="30.255000000000003" rx="1.9130434782608745" ry="1.9149999999999991" fill="rgb(188,224,108)"/><ellipse vector-effect="non-scaling-stroke" cx="122.08695652173914" cy="34.08500000000001" rx="1.9130434782608745" ry="1.9149999999999991" fill="rgb(188,224,108)"/><ellipse vector-effect="non-scaling-stroke" cx="122.08695652173914" cy="37.915000000000006" rx="1.9130434782608745" ry="1.9149999999999991" fill="rgb(188,224,108)"/><ellipse vector-effect="non-scaling-stroke" cx="122.08695652173914" cy="41.745000000000005" rx="1.9130434782608745" ry="1.9149999999999991" fill="rgb(188,224,108)"/><ellipse vector-effect="non-scaling-stroke" cx="160.3478260869565" cy="18.765" rx="1.9130434782608745" ry="1.9149999999999991" fill="rgb(188,224,108)"/><ellipse vector-effect="non-scaling-stroke" cx="160.3478260869565" cy="26.424999999999997" rx="1.9130434782608745" ry="1.9149999999999991" fill="rgb(188,224,108)"/><ellipse vector-effect="non-scaling-stroke" cx="160.3478260869565" cy="30.255000000000003" rx="1.9130434782608745" ry="1.9149999999999991" fill="rgb(188,224,108)"/><ellipse vector-effect="non-scaling-stroke" cx="160.3478260869565" cy="34.08500000000001" rx="1.9130434782608745" ry="1.9149999999999991" fill="rgb(188,224,108)"/><ellipse vector-effect="non-scaling-stroke" cx="160.3478260869565" cy="37.915000000000006" rx="1.9130434782608745" ry="1.9149999999999991" fill="rgb(188,224,108)"/><ellipse vector-effect="non-scaling-stroke" cx="160.3478260869565" cy="41.745000000000005" rx="1.9130434782608745" ry="1.9149999999999991" fill="rgb(188,224,108)"/><ellipse vector-effect="non-scaling-stroke" cx="160.3478260869565" cy="45.575" rx="1.9130434782608745" ry="1.9149999999999991" fill="rgb(188,224,108)"/><ellipse vector-effect="non-scaling-stroke" cx="160.3478260869565" cy="49.405" rx="1.9130434782608745" ry="1.9149999999999991" fill="rgb(188,224,108)"/><ellipse vector-effect="non-scaling-stroke" cx="160.3478260869565" cy="53.235" rx="1.9130434782608745" ry="1.9149999999999991" fill="rgb(188,224,108)"/><ellipse vector-effect="non-scaling-stroke" cx="160.3478260869565" cy="22.595000000000006" rx="1.9130434782608745" ry="1.9149999999999991" fill="rgb(188,224,108)"/><ellipse vector-effect="non-scaling-stroke" cx="164.17391304347825" cy="18.765" rx="1.9130434782608745" ry="1.9149999999999991" fill="rgb(188,224,108)"/><ellipse vector-effect="non-scaling-stroke" cx="164.17391304347825" cy="26.424999999999997" rx="1.9130434782608745" ry="1.9149999999999991" fill="rgb(188,224,108)"/><ellipse vector-effect="non-scaling-stroke" cx="164.17391304347825" cy="30.255000000000003" rx="1.9130434782608745" ry="1.9149999999999991" fill="rgb(188,224,108)"/><ellipse vector-effect="non-scaling-stroke" cx="164.17391304347825" cy="34.08500000000001" rx="1.9130434782608745" ry="1.9149999999999991" fill="rgb(188,224,108)"/><ellipse vector-effect="non-scaling-stroke" cx="164.17391304347825" cy="37.915000000000006" rx="1.9130434782608745" ry="1.9149999999999991" fill="rgb(188,224,108)"/><ellipse vector-effect="non-scaling-stroke" cx="164.17391304347825" cy="41.745000000000005" rx="1.9130434782608745" ry="1.9149999999999991" fill="rgb(188,224,108)"/><ellipse vector-effect="non-scaling-stroke" cx="164.17391304347825" cy="45.575" rx="1.9130434782608745" ry="1.9149999999999991" fill="rgb(188,224,108)"/><ellipse vector-effect="non-scaling-stroke" cx="164.17391304347825" cy="49.405" rx="1.9130434782608745" ry="1.9149999999999991" fill="rgb(188,224,108)"/><ellipse vector-effect="non-scaling-stroke" cx="164.17391304347825" cy="53.235" rx="1.9130434782608745" ry="1.9149999999999991" fill="rgb(188,224,108)"/><ellipse vector-effect="non-scaling-stroke" cx="168" cy="53.235" rx="1.9130434782608745" ry="1.9149999999999991" fill="rgb(188,224,108)"/><ellipse vector-effect="non-scaling-stroke" cx="171.8260869565218" cy="53.235" rx="1.9130434782608745" ry="1.9149999999999991" fill="rgb(188,224,108)"/><ellipse vector-effect="non-scaling-stroke" cx="168" cy="53.235" rx="1.9130434782608745" ry="1.9149999999999991" fill="rgb(188,224,108)"/><ellipse vector-effect="non-scaling-stroke" cx="171.8260869565218" cy="53.235" rx="1.9130434782608745" ry="1.9149999999999991" fill="rgb(188,224,108)"/><ellipse vector-effect="non-scaling-stroke" cx="175.6521739130435" cy="53.235" rx="1.9130434782608745" ry="1.9149999999999991" fill="rgb(188,224,108)"/><ellipse vector-effect="non-scaling-stroke" cx="179.4782608695652" cy="49.405" rx="1.9130434782608745" ry="1.9149999999999991" fill="rgb(188,224,108)"/><ellipse vector-effect="non-scaling-stroke" cx="164.17391304347825" cy="22.595000000000006" rx="1.9130434782608745" ry="1.9149999999999991" fill="rgb(188,224,108)"/><ellipse vector-effect="non-scaling-stroke" cx="168" cy="18.765" rx="1.9130434782608745" ry="1.9149999999999991" fill="rgb(188,224,108)"/><ellipse vector-effect="non-scaling-stroke" cx="168" cy="49.405" rx="1.9130434782608745" ry="1.9149999999999991" fill="rgb(188,224,108)"/><ellipse vector-effect="non-scaling-stroke" cx="168" cy="22.595000000000006" rx="1.9130434782608745" ry="1.9149999999999991" fill="rgb(188,224,108)"/><ellipse vector-effect="non-scaling-stroke" cx="171.8260869565218" cy="18.765" rx="1.9130434782608745" ry="1.9149999999999991" fill="rgb(188,224,108)"/><ellipse vector-effect="non-scaling-stroke" cx="171.8260869565218" cy="49.405" rx="1.9130434782608745" ry="1.9149999999999991" fill="rgb(188,224,108)"/><ellipse vector-effect="non-scaling-stroke" cx="171.8260869565218" cy="22.595000000000006" rx="1.9130434782608745" ry="1.9149999999999991" fill="rgb(188,224,108)"/><ellipse vector-effect="non-scaling-stroke" cx="175.6521739130435" cy="49.405" rx="1.9130434782608745" ry="1.9149999999999991" fill="rgb(188,224,108)"/><ellipse vector-effect="non-scaling-stroke" cx="175.6521739130435" cy="22.595000000000006" rx="1.9130434782608745" ry="1.9149999999999991" fill="rgb(188,224,108)"/><ellipse vector-effect="non-scaling-stroke" cx="175.6521739130435" cy="18.765" rx="1.9130434782608745" ry="1.9149999999999991" fill="rgb(188,224,108)"/><ellipse vector-effect="non-scaling-stroke" cx="179.4782608695652" cy="22.595000000000006" rx="1.9130434782608745" ry="1.9149999999999991" fill="rgb(188,224,108)"/><ellipse vector-effect="non-scaling-stroke" cx="179.4782608695652" cy="26.424999999999997" rx="1.9130434782608745" ry="1.9149999999999991" fill="rgb(188,224,108)"/><ellipse vector-effect="non-scaling-stroke" cx="179.4782608695652" cy="30.255000000000003" rx="1.9130434782608745" ry="1.9149999999999991" fill="rgb(188,224,108)"/><ellipse vector-effect="non-scaling-stroke" cx="179.4782608695652" cy="34.08500000000001" rx="1.9130434782608745" ry="1.9149999999999991" fill="rgb(188,224,108)"/><ellipse vector-effect="non-scaling-stroke" cx="179.4782608695652" cy="37.915000000000006" rx="1.9130434782608745" ry="1.9149999999999991" fill="rgb(188,224,108)"/><ellipse vector-effect="non-scaling-stroke" cx="179.4782608695652" cy="41.745000000000005" rx="1.9130434782608745" ry="1.9149999999999991" fill="rgb(188,224,108)"/><ellipse vector-effect="non-scaling-stroke" cx="179.4782608695652" cy="45.575" rx="1.9130434782608745" ry="1.9149999999999991" fill="rgb(188,224,108)"/><ellipse vector-effect="non-scaling-stroke" cx="179.4782608695652" cy="30.255000000000003" rx="1.9130434782608745" ry="1.9149999999999991" fill="rgb(188,224,108)"/><ellipse vector-effect="non-scaling-stroke" cx="179.4782608695652" cy="34.08500000000001" rx="1.9130434782608745" ry="1.9149999999999991" fill="rgb(188,224,108)"/><ellipse vector-effect="non-scaling-stroke" cx="179.4782608695652" cy="37.915000000000006" rx="1.9130434782608745" ry="1.9149999999999991" fill="rgb(188,224,108)"/><ellipse vector-effect="non-scaling-stroke" cx="179.4782608695652" cy="41.745000000000005" rx="1.9130434782608745" ry="1.9149999999999991" fill="rgb(188,224,108)"/><ellipse vector-effect="non-scaling-stroke" cx="183.304347826087" cy="26.424999999999997" rx="1.9130434782608745" ry="1.9149999999999991" fill="rgb(188,224,108)"/><ellipse vector-effect="non-scaling-stroke" cx="183.304347826087" cy="30.255000000000003" rx="1.9130434782608745" ry="1.9149999999999991" fill="rgb(188,224,108)"/><ellipse vector-effect="non-scaling-stroke" cx="183.304347826087" cy="34.08500000000001" rx="1.9130434782608745" ry="1.9149999999999991" fill="rgb(188,224,108)"/><ellipse vector-effect="non-scaling-stroke" cx="183.304347826087" cy="37.915000000000006" rx="1.9130434782608745" ry="1.9149999999999991" fill="rgb(188,224,108)"/><ellipse vector-effect="non-scaling-stroke" cx="183.304347826087" cy="41.745000000000005" rx="1.9130434782608745" ry="1.9149999999999991" fill="rgb(188,224,108)"/><ellipse vector-effect="non-scaling-stroke" cx="183.304347826087" cy="45.575" rx="1.9130434782608745" ry="1.9149999999999991" fill="rgb(188,224,108)"/><ellipse vector-effect="non-scaling-stroke" cx="183.304347826087" cy="30.255000000000003" rx="1.9130434782608745" ry="1.9149999999999991" fill="rgb(188,224,108)"/><ellipse vector-effect="non-scaling-stroke" cx="183.304347826087" cy="34.08500000000001" rx="1.9130434782608745" ry="1.9149999999999991" fill="rgb(188,224,108)"/><ellipse vector-effect="non-scaling-stroke" cx="183.304347826087" cy="37.915000000000006" rx="1.9130434782608745" ry="1.9149999999999991" fill="rgb(188,224,108)"/><ellipse vector-effect="non-scaling-stroke" cx="183.304347826087" cy="41.745000000000005" rx="1.9130434782608745" ry="1.9149999999999991" fill="rgb(188,224,108)"/><ellipse vector-effect="non-scaling-stroke" cx="190.95652173913044" cy="18.765" rx="1.9130434782608745" ry="1.9149999999999991" fill="rgb(188,224,108)"/><ellipse vector-effect="non-scaling-stroke" cx="190.95652173913044" cy="26.424999999999997" rx="1.9130434782608745" ry="1.9149999999999991" fill="rgb(188,224,108)"/><ellipse vector-effect="non-scaling-stroke" cx="190.95652173913044" cy="30.255000000000003" rx="1.9130434782608745" ry="1.9149999999999991" fill="rgb(188,224,108)"/><ellipse vector-effect="non-scaling-stroke" cx="190.95652173913044" cy="34.08500000000001" rx="1.9130434782608745" ry="1.9149999999999991" fill="rgb(188,224,108)"/><ellipse vector-effect="non-scaling-stroke" cx="190.95652173913044" cy="37.915000000000006" rx="1.9130434782608745" ry="1.9149999999999991" fill="rgb(188,224,108)"/><ellipse vector-effect="non-scaling-stroke" cx="190.95652173913044" cy="41.745000000000005" rx="1.9130434782608745" ry="1.9149999999999991" fill="rgb(188,224,108)"/><ellipse vector-effect="non-scaling-stroke" cx="190.95652173913044" cy="45.575" rx="1.9130434782608745" ry="1.9149999999999991" fill="rgb(188,224,108)"/><ellipse vector-effect="non-scaling-stroke" cx="190.95652173913044" cy="49.405" rx="1.9130434782608745" ry="1.9149999999999991" fill="rgb(188,224,108)"/><ellipse vector-effect="non-scaling-stroke" cx="190.95652173913044" cy="53.235" rx="1.9130434782608745" ry="1.9149999999999991" fill="rgb(188,224,108)"/><ellipse vector-effect="non-scaling-stroke" cx="190.95652173913044" cy="22.595000000000006" rx="1.9130434782608745" ry="1.9149999999999991" fill="rgb(188,224,108)"/><ellipse vector-effect="non-scaling-stroke" cx="194.7826086956522" cy="18.765" rx="1.9130434782608745" ry="1.9149999999999991" fill="rgb(188,224,108)"/><ellipse vector-effect="non-scaling-stroke" cx="194.7826086956522" cy="26.424999999999997" rx="1.9130434782608745" ry="1.9149999999999991" fill="rgb(188,224,108)"/><ellipse vector-effect="non-scaling-stroke" cx="194.7826086956522" cy="30.255000000000003" rx="1.9130434782608745" ry="1.9149999999999991" fill="rgb(188,224,108)"/><ellipse vector-effect="non-scaling-stroke" cx="194.7826086956522" cy="34.08500000000001" rx="1.9130434782608745" ry="1.9149999999999991" fill="rgb(188,224,108)"/><ellipse vector-effect="non-scaling-stroke" cx="194.7826086956522" cy="37.915000000000006" rx="1.9130434782608745" ry="1.9149999999999991" fill="rgb(188,224,108)"/><ellipse vector-effect="non-scaling-stroke" cx="194.7826086956522" cy="41.745000000000005" rx="1.9130434782608745" ry="1.9149999999999991" fill="rgb(188,224,108)"/><ellipse vector-effect="non-scaling-stroke" cx="194.7826086956522" cy="45.575" rx="1.9130434782608745" ry="1.9149999999999991" fill="rgb(188,224,108)"/><ellipse vector-effect="non-scaling-stroke" cx="194.7826086956522" cy="49.405" rx="1.9130434782608745" ry="1.9149999999999991" fill="rgb(188,224,108)"/><ellipse vector-effect="non-scaling-stroke" cx="194.7826086956522" cy="53.235" rx="1.9130434782608745" ry="1.9149999999999991" fill="rgb(188,224,108)"/><ellipse vector-effect="non-scaling-stroke" cx="198.60869565217394" cy="53.235" rx="1.9130434782608745" ry="1.9149999999999991" fill="rgb(188,224,108)"/><ellipse vector-effect="non-scaling-stroke" cx="202.43478260869563" cy="53.235" rx="1.9130434782608745" ry="1.9149999999999991" fill="rgb(188,224,108)"/><ellipse vector-effect="non-scaling-stroke" cx="198.60869565217394" cy="53.235" rx="1.9130434782608745" ry="1.9149999999999991" fill="rgb(188,224,108)"/><ellipse vector-effect="non-scaling-stroke" cx="202.43478260869563" cy="53.235" rx="1.9130434782608745" ry="1.9149999999999991" fill="rgb(188,224,108)"/><ellipse vector-effect="non-scaling-stroke" cx="194.7826086956522" cy="22.595000000000006" rx="1.9130434782608745" ry="1.9149999999999991" fill="rgb(188,224,108)"/><ellipse vector-effect="non-scaling-stroke" cx="198.60869565217394" cy="18.765" rx="1.9130434782608745" ry="1.9149999999999991" fill="rgb(188,224,108)"/><ellipse vector-effect="non-scaling-stroke" cx="198.60869565217394" cy="49.405" rx="1.9130434782608745" ry="1.9149999999999991" fill="rgb(188,224,108)"/><ellipse vector-effect="non-scaling-stroke" cx="198.60869565217394" cy="22.595000000000006" rx="1.9130434782608745" ry="1.9149999999999991" fill="rgb(188,224,108)"/><ellipse vector-effect="non-scaling-stroke" cx="202.43478260869563" cy="18.765" rx="1.9130434782608745" ry="1.9149999999999991" fill="rgb(188,224,108)"/><ellipse vector-effect="non-scaling-stroke" cx="202.43478260869563" cy="49.405" rx="1.9130434782608745" ry="1.9149999999999991" fill="rgb(188,224,108)"/><ellipse vector-effect="non-scaling-stroke" cx="202.43478260869563" cy="22.595000000000006" rx="1.9130434782608745" ry="1.9149999999999991" fill="rgb(188,224,108)"/><ellipse vector-effect="non-scaling-stroke" cx="206.26086956521738" cy="49.405" rx="1.9130434782608745" ry="1.9149999999999991" fill="rgb(188,224,108)"/><ellipse vector-effect="non-scaling-stroke" cx="206.26086956521738" cy="53.235" rx="1.9130434782608745" ry="1.9149999999999991" fill="rgb(188,224,108)"/><ellipse vector-effect="non-scaling-stroke" cx="198.60869565217394" cy="37.915000000000006" rx="1.9130434782608745" ry="1.9149999999999991" fill="rgb(188,224,108)"/><ellipse vector-effect="non-scaling-stroke" cx="202.43478260869563" cy="37.915000000000006" rx="1.9130434782608745" ry="1.9149999999999991" fill="rgb(188,224,108)"/><ellipse vector-effect="non-scaling-stroke" cx="198.60869565217394" cy="37.915000000000006" rx="1.9130434782608745" ry="1.9149999999999991" fill="rgb(188,224,108)"/><ellipse vector-effect="non-scaling-stroke" cx="202.43478260869563" cy="37.915000000000006" rx="1.9130434782608745" ry="1.9149999999999991" fill="rgb(188,224,108)"/><ellipse vector-effect="non-scaling-stroke" cx="198.60869565217394" cy="34.08500000000001" rx="1.9130434782608745" ry="1.9149999999999991" fill="rgb(188,224,108)"/><ellipse vector-effect="non-scaling-stroke" cx="202.43478260869563" cy="34.08500000000001" rx="1.9130434782608745" ry="1.9149999999999991" fill="rgb(188,224,108)"/><ellipse vector-effect="non-scaling-stroke" cx="206.26086956521738" cy="34.08500000000001" rx="1.9130434782608745" ry="1.9149999999999991" fill="rgb(188,224,108)"/><ellipse vector-effect="non-scaling-stroke" cx="206.26086956521738" cy="37.915000000000006" rx="1.9130434782608745" ry="1.9149999999999991" fill="rgb(188,224,108)"/><ellipse vector-effect="non-scaling-stroke" cx="206.26086956521738" cy="22.595000000000006" rx="1.9130434782608745" ry="1.9149999999999991" fill="rgb(188,224,108)"/><ellipse vector-effect="non-scaling-stroke" cx="206.26086956521738" cy="18.765" rx="1.9130434782608745" ry="1.9149999999999991" fill="rgb(188,224,108)"/><ellipse vector-effect="non-scaling-stroke" cx="210.08695652173913" cy="49.405" rx="1.9130434782608745" ry="1.9149999999999991" fill="rgb(188,224,108)"/><ellipse vector-effect="non-scaling-stroke" cx="210.08695652173913" cy="53.235" rx="1.9130434782608745" ry="1.9149999999999991" fill="rgb(188,224,108)"/><ellipse vector-effect="non-scaling-stroke" cx="210.08695652173913" cy="34.08500000000001" rx="1.9130434782608745" ry="1.9149999999999991" fill="rgb(188,224,108)"/><ellipse vector-effect="non-scaling-stroke" cx="210.08695652173913" cy="37.915000000000006" rx="1.9130434782608745" ry="1.9149999999999991" fill="rgb(188,224,108)"/><ellipse vector-effect="non-scaling-stroke" cx="210.08695652173913" cy="22.595000000000006" rx="1.9130434782608745" ry="1.9149999999999991" fill="rgb(188,224,108)"/><ellipse vector-effect="non-scaling-stroke" cx="210.08695652173913" cy="18.765" rx="1.9130434782608745" ry="1.9149999999999991" fill="rgb(188,224,108)"/><ellipse vector-effect="non-scaling-stroke" cx="68.52173913043478" cy="26.424999999999997" rx="1.9130434782608745" ry="1.9149999999999991" fill="rgb(188,224,108)"/><ellipse vector-effect="non-scaling-stroke" cx="68.52173913043478" cy="30.255000000000003" rx="1.9130434782608745" ry="1.9149999999999991" fill="rgb(188,224,108)"/><ellipse vector-effect="non-scaling-stroke" cx="68.52173913043478" cy="34.08500000000001" rx="1.9130434782608745" ry="1.9149999999999991" fill="rgb(188,224,108)"/><ellipse vector-effect="non-scaling-stroke" cx="68.52173913043478" cy="37.915000000000006" rx="1.9130434782608745" ry="1.9149999999999991" fill="rgb(188,224,108)"/><ellipse vector-effect="non-scaling-stroke" cx="68.52173913043478" cy="41.745000000000005" rx="1.9130434782608745" ry="1.9149999999999991" fill="rgb(188,224,108)"/><ellipse vector-effect="non-scaling-stroke" cx="68.52173913043478" cy="45.575" rx="1.9130434782608745" ry="1.9149999999999991" fill="rgb(188,224,108)"/><ellipse vector-effect="non-scaling-stroke" cx="68.52173913043478" cy="49.405" rx="1.9130434782608745" ry="1.9149999999999991" fill="rgb(188,224,108)"/><ellipse vector-effect="non-scaling-stroke" cx="68.52173913043478" cy="53.235" rx="1.9130434782608745" ry="1.9149999999999991" fill="rgb(188,224,108)"/><ellipse vector-effect="non-scaling-stroke" cx="72.34782608695652" cy="26.424999999999997" rx="1.9130434782608745" ry="1.9149999999999991" fill="rgb(188,224,108)"/><ellipse vector-effect="non-scaling-stroke" cx="72.34782608695652" cy="30.255000000000003" rx="1.9130434782608745" ry="1.9149999999999991" fill="rgb(188,224,108)"/><ellipse vector-effect="non-scaling-stroke" cx="72.34782608695652" cy="34.08500000000001" rx="1.9130434782608745" ry="1.9149999999999991" fill="rgb(188,224,108)"/><ellipse vector-effect="non-scaling-stroke" cx="72.34782608695652" cy="37.915000000000006" rx="1.9130434782608745" ry="1.9149999999999991" fill="rgb(188,224,108)"/><ellipse vector-effect="non-scaling-stroke" cx="72.34782608695652" cy="41.745000000000005" rx="1.9130434782608745" ry="1.9149999999999991" fill="rgb(188,224,108)"/><ellipse vector-effect="non-scaling-stroke" cx="72.34782608695652" cy="45.575" rx="1.9130434782608745" ry="1.9149999999999991" fill="rgb(188,224,108)"/><ellipse vector-effect="non-scaling-stroke" cx="72.34782608695652" cy="49.405" rx="1.9130434782608745" ry="1.9149999999999991" fill="rgb(188,224,108)"/><ellipse vector-effect="non-scaling-stroke" cx="72.34782608695652" cy="53.235" rx="1.9130434782608745" ry="1.9149999999999991" fill="rgb(188,224,108)"/><ellipse vector-effect="non-scaling-stroke" cx="72.34782608695652" cy="22.595000000000006" rx="1.9130434782608745" ry="1.9149999999999991" fill="rgb(188,224,108)"/><ellipse vector-effect="non-scaling-stroke" cx="76.17391304347825" cy="18.765" rx="1.9130434782608745" ry="1.9149999999999991" fill="rgb(188,224,108)"/><ellipse vector-effect="non-scaling-stroke" cx="76.17391304347825" cy="22.595000000000006" rx="1.9130434782608745" ry="1.9149999999999991" fill="rgb(188,224,108)"/><ellipse vector-effect="non-scaling-stroke" cx="80" cy="18.765" rx="1.9130434782608745" ry="1.9149999999999991" fill="rgb(188,224,108)"/><ellipse vector-effect="non-scaling-stroke" cx="80" cy="22.595000000000006" rx="1.9130434782608745" ry="1.9149999999999991" fill="rgb(188,224,108)"/><ellipse vector-effect="non-scaling-stroke" cx="83.82608695652173" cy="18.765" rx="1.9130434782608745" ry="1.9149999999999991" fill="rgb(188,224,108)"/><ellipse vector-effect="non-scaling-stroke" cx="83.82608695652173" cy="22.595000000000006" rx="1.9130434782608745" ry="1.9149999999999991" fill="rgb(188,224,108)"/><ellipse vector-effect="non-scaling-stroke" cx="87.65217391304347" cy="26.424999999999997" rx="1.9130434782608745" ry="1.9149999999999991" fill="rgb(188,224,108)"/><ellipse vector-effect="non-scaling-stroke" cx="87.65217391304347" cy="30.255000000000003" rx="1.9130434782608745" ry="1.9149999999999991" fill="rgb(188,224,108)"/><ellipse vector-effect="non-scaling-stroke" cx="87.65217391304347" cy="34.08500000000001" rx="1.9130434782608745" ry="1.9149999999999991" fill="rgb(188,224,108)"/><ellipse vector-effect="non-scaling-stroke" cx="87.65217391304347" cy="37.915000000000006" rx="1.9130434782608745" ry="1.9149999999999991" fill="rgb(188,224,108)"/><ellipse vector-effect="non-scaling-stroke" cx="87.65217391304347" cy="41.745000000000005" rx="1.9130434782608745" ry="1.9149999999999991" fill="rgb(188,224,108)"/><ellipse vector-effect="non-scaling-stroke" cx="87.65217391304347" cy="45.575" rx="1.9130434782608745" ry="1.9149999999999991" fill="rgb(188,224,108)"/><ellipse vector-effect="non-scaling-stroke" cx="87.65217391304347" cy="49.405" rx="1.9130434782608745" ry="1.9149999999999991" fill="rgb(188,224,108)"/><ellipse vector-effect="non-scaling-stroke" cx="87.65217391304347" cy="53.235" rx="1.9130434782608745" ry="1.9149999999999991" fill="rgb(188,224,108)"/><ellipse vector-effect="non-scaling-stroke" cx="87.65217391304347" cy="22.595000000000006" rx="1.9130434782608745" ry="1.9149999999999991" fill="rgb(188,224,108)"/><ellipse vector-effect="non-scaling-stroke" cx="91.47826086956522" cy="26.424999999999997" rx="1.9130434782608745" ry="1.9149999999999991" fill="rgb(188,224,108)"/><ellipse vector-effect="non-scaling-stroke" cx="91.47826086956522" cy="30.255000000000003" rx="1.9130434782608745" ry="1.9149999999999991" fill="rgb(188,224,108)"/><ellipse vector-effect="non-scaling-stroke" cx="91.47826086956522" cy="34.08500000000001" rx="1.9130434782608745" ry="1.9149999999999991" fill="rgb(188,224,108)"/><ellipse vector-effect="non-scaling-stroke" cx="76.17391304347825" cy="34.08500000000001" rx="1.9130434782608745" ry="1.9149999999999991" fill="rgb(188,224,108)"/><ellipse vector-effect="non-scaling-stroke" cx="80" cy="34.08500000000001" rx="1.9130434782608745" ry="1.9149999999999991" fill="rgb(188,224,108)"/><ellipse vector-effect="non-scaling-stroke" cx="83.82608695652173" cy="34.08500000000001" rx="1.9130434782608745" ry="1.9149999999999991" fill="rgb(188,224,108)"/><ellipse vector-effect="non-scaling-stroke" cx="76.17391304347825" cy="37.915000000000006" rx="1.9130434782608745" ry="1.9149999999999991" fill="rgb(188,224,108)"/><ellipse vector-effect="non-scaling-stroke" cx="80" cy="37.915000000000006" rx="1.9130434782608745" ry="1.9149999999999991" fill="rgb(188,224,108)"/><ellipse vector-effect="non-scaling-stroke" cx="83.82608695652173" cy="37.915000000000006" rx="1.9130434782608745" ry="1.9149999999999991" fill="rgb(188,224,108)"/><ellipse vector-effect="non-scaling-stroke" cx="91.47826086956522" cy="37.915000000000006" rx="1.9130434782608745" ry="1.9149999999999991" fill="rgb(188,224,108)"/><ellipse vector-effect="non-scaling-stroke" cx="91.47826086956522" cy="41.745000000000005" rx="1.9130434782608745" ry="1.9149999999999991" fill="rgb(188,224,108)"/><ellipse vector-effect="non-scaling-stroke" cx="91.47826086956522" cy="45.575" rx="1.9130434782608745" ry="1.9149999999999991" fill="rgb(188,224,108)"/><ellipse vector-effect="non-scaling-stroke" cx="91.47826086956522" cy="49.405" rx="1.9130434782608745" ry="1.9149999999999991" fill="rgb(188,224,108)"/><ellipse vector-effect="non-scaling-stroke" cx="91.47826086956522" cy="53.235" rx="1.9130434782608745" ry="1.9149999999999991" fill="rgb(188,224,108)"/><ellipse vector-effect="non-scaling-stroke" cx="60.8695652173913" cy="49.405" rx="1.9130434782608674" ry="1.9149999999999991" fill="rgb(188,224,108)"/><ellipse vector-effect="non-scaling-stroke" cx="56.6304347826087" cy="26.424999999999997" rx="1.5" ry="1.9149999999999991" fill="rgb(188,224,108)"/></g></g></svg>